<?xml version="1.0" encoding="UTF-8"?>
<!DOCTYPE svg PUBLIC "-//W3C//DTD SVG 1.1//EN" "http://www.w3.org/Graphics/SVG/1.1/DTD/svg11.dtd">
<!-- Creator: CorelDRAW -->
<svg xmlns="http://www.w3.org/2000/svg" xml:space="preserve" width="8in" height="8in" style="shape-rendering:geometricPrecision; text-rendering:geometricPrecision; image-rendering:optimizeQuality; fill-rule:evenodd; clip-rule:evenodd"
viewBox="0 0 8000 8000"
 xmlns:xlink="http://www.w3.org/1999/xlink">
 <defs>
  <style type="text/css">
   <![CDATA[
    .str0 {stroke:black;stroke-linecap:round;stroke-linejoin:round}
    .fil0 {fill:black}
   ]]>
  </style>
 </defs>
 <g id="Layer_x0020_1">
  <metadata id="CorelCorpID_0Corel-Layer"/>
  <path class="fil0 str0" d="M5047 5c-240,59 -480,171 -663,339 -46,42 -90,84 -140,121 -195,146 -395,491 -486,711 -62,149 -21,124 -158,35 -179,-118 -331,-209 -543,-263 -184,-47 -172,-46 -263,157 -93,206 -147,408 -178,631 -14,103 -37,199 -34,304 1,20 21,202 -10,213 -22,8 -276,-277 -306,-306 -143,-137 -415,-390 -609,-432 -73,-16 -88,68 -106,119 -52,153 -95,317 -97,479 -1,83 -74,9 -201,-59 -162,-87 -202,-109 -379,-177 -80,-31 -148,-63 -233,-84 -64,-15 -288,-96 -343,-75 -41,17 -27,57 -36,91 -73,290 -17,634 57,917 14,51 17,106 34,156 29,92 50,186 85,276 75,198 66,99 -209,195 -35,12 -176,65 -206,93 -52,46 0,154 21,214 83,244 211,489 391,677 18,19 40,32 58,50 22,23 223,230 228,260 4,26 -103,86 -119,96 -200,133 -183,110 -382,215 -57,30 -137,39 -102,126 18,46 38,73 56,125 38,108 107,195 175,285 172,225 200,238 431,385 402,257 776,358 1250,358 116,0 232,-7 346,-27 34,-6 68,-12 103,-16 101,-10 248,-86 221,99 -7,47 -19,83 -23,128 -9,94 -69,224 -109,312 -56,122 -157,208 -260,291 -189,155 -409,270 -644,337 -85,24 -96,64 -270,71 -81,3 -130,12 -215,5 -141,-11 -132,16 -282,-8 -249,-40 -199,145 -123,298 87,173 87,255 303,258 84,1 39,25 196,-7 172,-34 457,-99 602,-189 167,-102 341,-153 517,-291 150,-118 237,-183 375,-324 32,-32 54,-70 85,-103 111,-118 213,-266 262,-421 13,-40 24,-148 90,-137 42,8 70,105 105,173 104,201 147,243 316,403 224,212 607,482 892,577 170,56 578,88 757,90 118,1 244,-22 350,-79 45,-24 6,-78 -4,-185 -8,-97 -88,-342 -125,-428 -39,-89 -140,-277 -197,-355 -72,-98 -20,-55 241,-126 77,-21 154,-45 232,-62 260,-56 505,-172 749,-275 59,-25 62,-14 135,-55 131,-73 221,-77 374,-203 92,-76 135,-70 19,-248 -182,-277 -358,-337 -528,-518 -42,-44 80,-78 106,-90 114,-52 228,-105 332,-174 151,-102 457,-230 565,-333 132,-124 379,-274 450,-460 39,-103 46,-124 -62,-172 -56,-26 -116,-43 -173,-68 -238,-105 -498,-158 -757,-153 -286,5 -228,3 -493,48 -91,15 -37,-34 13,-98 58,-76 112,-138 157,-229 27,-54 152,-324 36,-360 -170,-54 -428,-75 -607,-74 -293,1 -587,39 -863,138 -13,5 -81,45 -91,32 -13,-17 47,-72 53,-82 72,-113 154,-222 214,-343 139,-277 187,-291 309,-662 60,-184 85,-300 115,-480 10,-61 61,-184 -52,-184 -204,-1 -429,12 -612,110 -30,17 -137,97 -92,4 20,-42 69,-142 75,-181 11,-74 61,-200 77,-290 18,-100 36,-214 24,-316 -17,-133 18,-167 -25,-350 -12,-52 -117,-463 -172,-450z"/>
 </g>
</svg>
